<svg id="Слой_1" xmlns="http://www.w3.org/2000/svg" viewBox="-41 164.9 512 512"><style>.st0{fill:#fff}</style><path class="st0" d="M436.9 659.8V173.4c0-4.7-3.8-8.5-8.5-8.5H1.7c-4.7 0-8.5 3.8-8.5 8.5v486.4H-41v17.1h512v-17.1h-34.1zM419.8 182v335.6c-1.1-1.9-2.2-4.2-3.5-6.6-5.4-10.8-12.2-24.3-27.3-24.3s-21.9 13.5-27.3 24.4c-4.5 9-7.8 14.9-12 14.9s-7.5-5.9-12-14.9c-5.4-10.8-12.2-24.3-27.3-24.3-1 0-2 .1-3.1.2l34.6-304.8h77.9v-.2zm-213.3 0v477.9h-85.3v-128c0-14.1-11.5-25.6-25.6-25.6H10.2V224.6h13.5l14.2 14.2c-8.2 13.4-6.2 30.7 5 41.7 3.3 3.8 7.9 6 12.9 6.3h.7c7-1.3 13.1-5.6 16.8-11.7 1.8-2.3 3.7-4.5 5.8-6.6 2.2-2.2 4.5-4.1 6.6-5.8 6.1-3.6 10.4-9.7 11.7-16.8 0-5.2-2.3-10.2-6.2-13.7-10.9-10.8-27.7-13-41-5.4l-16.9-16.7c-1.6-1.6-3.8-2.5-6-2.5H10.2V182h196.3zM67.1 239.4c4.5 0 8.9 1.8 12.1 5l.8.8c-1.6 1.5-3.2 3-5 4.4-5.5 4.3-10.5 9.2-14.8 14.8-1.4 1.7-2.8 3.4-4.3 5-.2-.2-.5-.4-.8-.8-4.9-4.9-6.3-12.2-3.7-18.6 2.5-6.5 8.8-10.6 15.7-10.6zM10.2 659.8V523.3h85.3c4.7 0 8.5 3.8 8.5 8.5v128H10.2zm213.3 0V182h101.4l-36.5 320.9c-.4 3.9 1.8 7.6 5.5 8.9 3.7 1.4 7.8.1 10-3.1 3.4-5 5.5-5 6.6-5 4.3 0 7.5 5.9 12 14.9 5.4 10.8 12.2 24.3 27.3 24.3 15.1 0 21.8-13.5 27.2-24.3 4.5-9 7.8-15 12.1-15s7.5 5.9 12 14.9c3.4 9.5 10.1 17.4 18.7 22.5v118.7l-196.3.1z"/><path class="st0" d="M240.6 403.8h17.1v34.1h-17.1v-34.1zM172.3 403.8h17.1v34.1h-17.1v-34.1zM81 281.9l12.1-12.1 34.1 34.1-12.1 12.1L81 281.9zM98 264.8l12.1-12.1 34.1 34.1-12 12.1L98 264.8zM63.9 298.9l12.1-12 34.1 34.1L98 333.1l-34.1-34.2zM123.6 324.5l12.1-12.1 17.1 17.1-12.1 12.1-17.1-17.1zM140.7 307.5l12.1-12.1 17.1 17.1-12.1 12.1-17.1-17.1zM106.6 341.6l12.1-12.1 17.1 17.1-12.1 12.1-17.1-17.1zM394.2 634.2h17.1v17.1h-17.1v-17.1zM368.6 634.2h17.1v17.1h-17.1v-17.1zM394.2 608.6h17.1v17.1h-17.1v-17.1zM394.2 224.6h17.1V199c0-4.7-3.8-8.5-8.5-8.5h-25.6v17.1h17.1v17h-.1zM87 531.8H27.3c-4.7 0-8.5 3.8-8.5 8.5v102.4c0 4.7 3.8 8.5 8.5 8.5H87c4.7 0 8.5-3.8 8.5-8.5V540.4c0-4.7-3.8-8.6-8.5-8.6zm-8.5 102.4H35.8v-85.3h42.7v85.3z"/></svg>