<svg id="Слой_1" xmlns="http://www.w3.org/2000/svg" viewBox="-41 164.9 512 512"><style>.st0{fill:#ff4e36}</style><path class="st0" d="M-41 541v128.4c0 4.1 3.4 7.5 7.5 7.5h432.8c39.5 0 71.7-32.2 71.7-71.7V489.7c0-4.1-3.4-7.5-7.5-7.5s-7.5 3.4-7.5 7.5v115.5c0 31.3-25.4 56.7-56.7 56.7s-56.7-25.4-56.7-56.7V237.7H456v221.5c0 4.1 3.4 7.5 7.5 7.5s7.5-3.4 7.5-7.5V172.4c0-4.1-3.4-7.5-7.5-7.5H335.1c-4.1 0-7.5 3.4-7.5 7.5v211.3L203.9 212.6c-2.5-3.4-7.1-4.1-10.5-1.7l-104 75.2c-3.4 2.5-4.1 7.1-1.7 10.5l79.1 109.3-120.2-61.4c-1.8-.9-3.8-1.1-5.7-.5s-3.5 1.9-4.4 3.7l-17.9 34.9c-1.9 3.7-.4 8.2 3.3 10.1s8.2.4 10.1-3.3l14.4-28.3L186 432.4l16.3 22.6-30.2-15.4c-1.8-.9-3.8-1.1-5.7-.5s-3.5 1.9-4.4 3.7l-33.2 65c-1.9 3.7-.4 8.2 3.3 10.1l65 33.2c1.1.5 2.3.8 3.4.8 2.7 0 5.4-1.5 6.7-4.1l25.8-50.5 12.5 17.3-21.4 41.9c-1.8 3.7-.4 8.2 3.3 10.1l65 33.2c1.1.5 2.2.8 3.4.8.8 0 1.5-.2 2.3-.4 1.9-.6 3.5-1.9 4.4-3.7l.9-1.8 25.7 35.5c1.1 1.5 2.6 2.5 4.3 2.9.3.9.7 1.7 1.1 2.5l-144.3-73.7-195.3-99.8 23.8-46.7c1.9-3.7.4-8.2-3.3-10.1s-8.2-.4-10.1 3.3L-22 462c-.9 1.8-1.1 3.8-.5 5.7s1.9 3.5 3.7 4.4l120.2 61.4H-33.5c-4.1 0-7.5 3.4-7.5 7.5zm228.2 93.2h-58v-58H185l2.2 1.1v56.9zm107 0h-58v-31.8l58 29.6v2.2zm33.4-177.6v70.8l-13.4 9.7-34-47 47-34 .4.5zm-72.3 71.8l38.2 52.8-1 2-51.6-26.4 14.4-28.4zm-34.4-47.6l2.4 3.4c-.5.5-1 1.1-1.3 1.8l-24.9 48.5-51.6-26.4 26.4-51.6L218 480c.9.5 1.9.7 2.9.8zM327.6 409v28.9c-1.1.2-2.2.6-3.1 1.3L265.3 482c-3.4 2.5-4.1 7.1-1.7 10.5l42.8 59.2c1.2 1.6 2.9 2.7 4.9 3 .4.1.8.1 1.2.1 1.6 0 3.1-.5 4.4-1.4l10.7-7.7v57l-223.5-309 91.9-66.4L327.6 409zm15-186.3v-42.8H456v42.8H342.6zM-26 548.5h156.8l24.8 12.7h-33.9c-4.1 0-7.5 3.4-7.5 7.5v73c0 4.1 3.4 7.5 7.5 7.5h73c4.1 0 7.5-3.4 7.5-7.5V585l19 9.7v47c0 4.1 3.4 7.5 7.5 7.5h73c4.1 0 7.5-3.4 7.5-7.5v-2l43.5 22.2H-26V548.5z"/><path class="st0" d="M95.2 641.7v-73c0-4.1-3.4-7.5-7.5-7.5h-73c-4.1 0-7.5 3.4-7.5 7.5v73c0 4.1 3.4 7.5 7.5 7.5h73c4.2 0 7.5-3.3 7.5-7.5zm-15-7.5h-58v-58h58v58zM66.7 394.3l-33.2 65c-.9 1.8-1.1 3.8-.5 5.7s1.9 3.5 3.7 4.4l65 33.2c1.1.5 2.3.8 3.4.8 2.7 0 5.4-1.5 6.7-4.1l33.2-65c.9-1.7 1.1-3.8.5-5.7s-1.9-3.5-3.7-4.4l-65-33.2c-3.7-1.9-8.2-.4-10.1 3.3zm-16.4 65.1l26.4-51.6 51.6 26.4-26.4 51.6-51.6-26.4zm202.1-132.5l-42.8-59.2c-2.5-3.4-7.1-4.1-10.5-1.7l-59.2 42.8c-3.4 2.5-4.1 7.1-1.7 10.5l42.8 59.2c1.2 1.6 2.9 2.7 4.9 3 .4.1.8.1 1.2.1 1.6 0 3.1-.5 4.4-1.4l59.2-42.8c3.3-2.4 4.1-7.1 1.7-10.5zm-16.6 2.7l-47 34-34-47 47-34 34 47zm79.3 84l-42.8-59.2c-1.2-1.6-2.9-2.7-4.9-3-2-.3-4 .1-5.6 1.3l-59.2 42.8c-3.4 2.5-4.1 7.1-1.7 10.5l42.8 59.2c1.5 2 3.8 3.1 6.1 3.1 1.5 0 3.1-.4 4.4-1.4l59.2-42.8c3.3-2.4 4.1-7.1 1.7-10.5zm-16.6 2.7l-47 34-34-47 47-34 34 47zm94.5-43.6v17.5h-17.5c-4.1 0-7.5 3.4-7.5 7.5s3.4 7.5 7.5 7.5H393v17.5c0 4.1 3.4 7.5 7.5 7.5s7.5-3.4 7.5-7.5v-17.5h17.5c4.1 0 7.5-3.4 7.5-7.5s-3.4-7.5-7.5-7.5H408v-17.5c0-4.1-3.4-7.5-7.5-7.5s-7.5 3.4-7.5 7.5zm-27.2 222.6c0 20.1 16.4 36.5 36.5 36.5s36.5-16.4 36.5-36.5-16.4-36.5-36.5-36.5-36.5 16.3-36.5 36.5zm14.7 0c0-12 9.8-21.8 21.8-21.8s21.8 9.8 21.8 21.8-9.8 21.8-21.8 21.8-21.8-9.8-21.8-21.8z"/></svg>