<svg id="Слой_1" xmlns="http://www.w3.org/2000/svg" viewBox="-41 164.9 512 512"><style>.st0{fill:#fff}</style><path class="st0" d="M463.5 533.5H328.6l120.2-61.4c1.8-.9 3.1-2.5 3.7-4.4s.4-3.9-.5-5.7l-27.3-53.4c-1.9-3.7-6.4-5.2-10.1-3.3s-5.2 6.4-3.3 10.1l23.8 46.7-195.3 99.8-144.3 73.7c.4-.8.8-1.6 1.1-2.5 1.7-.4 3.2-1.4 4.3-2.9l25.7-35.5.9 1.8c.9 1.8 2.5 3.1 4.4 3.7.8.2 1.5.4 2.3.4 1.2 0 2.3-.3 3.4-.8l65-33.2c3.7-1.9 5.1-6.4 3.3-10.1l-21.4-41.9 12.5-17.3 25.8 50.5c1.3 2.6 4 4.1 6.7 4.1 1.1 0 2.3-.3 3.4-.8l65-33.2c3.7-1.9 5.2-6.4 3.3-10.1l-33.2-65c-.9-1.8-2.5-3.1-4.4-3.7s-3.9-.4-5.7.5L227.7 455l16.3-22.6 139.6-71.3 14.4 28.3c1.9 3.7 6.4 5.2 10.1 3.3s5.2-6.4 3.3-10.1l-17.9-34.9c-.9-1.8-2.5-3.1-4.4-3.7s-3.9-.4-5.7.5l-120.2 61.4 79.1-109.3c2.4-3.4 1.7-8-1.7-10.5l-104-75.2c-3.4-2.4-8-1.7-10.5 1.7L102.4 383.7V172.4c0-4.1-3.4-7.5-7.5-7.5H-33.5c-4.1 0-7.5 3.4-7.5 7.5v286.8c0 4.1 3.4 7.5 7.5 7.5s7.5-3.4 7.5-7.5V237.7H87.4v367.5c0 31.3-25.4 56.7-56.7 56.7S-26 636.5-26 605.2V489.7c0-4.1-3.4-7.5-7.5-7.5s-7.5 3.4-7.5 7.5v115.5c0 39.5 32.2 71.7 71.7 71.7h432.8c4.1 0 7.5-3.4 7.5-7.5V541c0-4.1-3.4-7.5-7.5-7.5zm-220.7 43.8l2.2-1.1h55.8v58h-58v-56.9zm-107 54.7l58-29.6v31.8h-58V632zm-33.4-175.4l.4-.5 47 34-34 47-13.4-9.7v-70.8zm86.7 100.2l-51.6 26.4-1-2 38.2-52.8 14.4 28.4zM212 480l46.1-23.5 26.4 51.6-51.6 26.4L208 486c-.3-.7-.8-1.3-1.3-1.8l2.4-3.4c1-.1 2-.3 2.9-.8zm22-252.7l91.9 66.4-223.5 309v-57l10.7 7.7c1.3.9 2.8 1.4 4.4 1.4.4 0 .8 0 1.2-.1 2-.3 3.7-1.4 4.9-3l42.8-59.2c2.4-3.4 1.7-8-1.7-10.5l-59.2-42.8c-.9-.7-2-1.1-3.1-1.3V409L234 227.3zm-260-4.6v-42.8H87.4v42.8H-26zm482 439.2H77.3l43.5-22.2v2c0 4.1 3.4 7.5 7.5 7.5h73c4.1 0 7.5-3.4 7.5-7.5v-47l19-9.7v56.7c0 4.1 3.4 7.5 7.5 7.5h73c4.1 0 7.5-3.4 7.5-7.5v-73c0-4.1-3.4-7.5-7.5-7.5h-33.9l24.8-12.7H456v113.4z"/><path class="st0" d="M342.3 649.2h73c4.1 0 7.5-3.4 7.5-7.5v-73c0-4.1-3.4-7.5-7.5-7.5h-73c-4.1 0-7.5 3.4-7.5 7.5v73c0 4.2 3.3 7.5 7.5 7.5zm7.5-73h58v58h-58v-58zM353.2 391l-65 33.2c-1.8.9-3.1 2.5-3.7 4.4s-.4 4 .5 5.7l33.2 65c1.3 2.6 4 4.1 6.7 4.1 1.1 0 2.3-.3 3.4-.8l65-33.2c1.8-.9 3.1-2.5 3.7-4.4s.4-3.9-.5-5.7l-33.2-65c-1.9-3.7-6.4-5.2-10.1-3.3zm-25.1 94.8l-26.4-51.6 51.6-26.4 26.4 51.6-51.6 26.4zM179.3 337.4l59.2 42.8c1.3.9 2.8 1.4 4.4 1.4.4 0 .8 0 1.2-.1 2-.3 3.7-1.4 4.9-3l42.8-59.2c2.4-3.4 1.7-8-1.7-10.5L230.9 266c-3.4-2.4-8-1.7-10.5 1.7l-42.8 59.2c-2.4 3.4-1.6 8.1 1.7 10.5zm48.9-54.8l47 34-34 47-47-34 34-47zM116.6 424.1l59.2 42.8c1.3 1 2.9 1.4 4.4 1.4 2.3 0 4.6-1.1 6.1-3.1l42.8-59.2c2.4-3.4 1.7-8-1.7-10.5l-59.2-42.8c-1.6-1.2-3.6-1.6-5.6-1.3-2 .3-3.7 1.4-4.9 3l-42.8 59.2c-2.4 3.4-1.6 8.1 1.7 10.5zm48.9-54.8l47 34-34 47-47-34 34-47zM29.5 365.2c-4.1 0-7.5 3.4-7.5 7.5v17.5H4.5c-4.1 0-7.5 3.4-7.5 7.5s3.4 7.5 7.5 7.5H22v17.5c0 4.1 3.4 7.5 7.5 7.5s7.5-3.4 7.5-7.5v-17.5h17.5c4.1 0 7.5-3.4 7.5-7.5s-3.4-7.5-7.5-7.5H37v-17.5c0-4.1-3.4-7.5-7.5-7.5zM27.7 558.8c-20.1 0-36.5 16.4-36.5 36.5s16.4 36.5 36.5 36.5 36.5-16.4 36.5-36.5c0-20.2-16.4-36.5-36.5-36.5zm0 58.3c-12 0-21.8-9.8-21.8-21.8s9.8-21.8 21.8-21.8 21.8 9.8 21.8 21.8-9.8 21.8-21.8 21.8z"/></svg>