<svg id="Capa_1" xmlns="http://www.w3.org/2000/svg" viewBox="-41 164.9 512 512"><style>.st0{fill:#ff5635}</style><path class="st0" d="M466.4 382.4l-82-125c-1.2-1.8-3.2-2.9-5.4-2.9H51.4c-2.2 0-4.2 1.1-5.4 2.9l-82.3 124.7c-.3.4-.5.7-.7 1.1-1 2.3-.7 5 1 7l41.6 47.5c1.1 1.3 2.7 2.1 4.5 2.2 1.7.1 3.4-.5 4.7-1.6s2.1-2.7 2.2-4.5c.1-1.7-.5-3.4-1.6-4.7l-32.2-36.8H128l73 248.6-86.8-99.1c-1.1-1.3-2.7-2.1-4.5-2.2h-.4c-1.6 0-3.1.6-4.3 1.6-1.3 1.2-2.1 2.7-2.2 4.5-.1 1.7.5 3.4 1.6 4.7l105.8 120.8c1.2 1.4 3 2.2 4.9 2.2s3.6-.8 4.9-2.2l112.6-128.6c1.1-1.3 1.7-3 1.6-4.7s-.9-3.3-2.2-4.5c-1.3-1.1-3-1.7-4.7-1.6-1.7.1-3.3.9-4.5 2.2l-93.7 107 72.8-248.5h144.8l-67.3 76.8c-1.1 1.3-1.7 3-1.6 4.7s.9 3.3 2.2 4.5c1.2 1 2.7 1.6 4.3 1.6 1.9 0 3.7-.8 4.9-2.2l76.7-87.6c1.9-2.2 2.1-5.5.5-7.9zm-485.3-2.9l70.3-106.7 70 106.7H-18.9zm82.3-112.1H203l-69.8 106.5-69.8-106.5zm151.6 5.4l70 106.7H145.1L215 272.8zm0 369.9l-73.3-250.3h146.6L215 642.7zm82-268.6l-70-106.7h140l-70 106.7zm12 5.4l70-106.7 70 106.7H309z"/><path class="st0" d="M116.2 495.4c-27.7 0-50.3-22.6-50.3-50.3 0-3.6-2.9-6.5-6.5-6.5s-6.5 2.9-6.5 6.5c0 27.7-22.5 50.3-50.3 50.3-3.6 0-6.5 2.9-6.5 6.5s2.9 6.5 6.5 6.5c27.7 0 50.3 22.6 50.3 50.3 0 3.6 2.9 6.5 6.5 6.5s6.5-2.9 6.5-6.5c0-27.7 22.6-50.3 50.3-50.3 3.6 0 6.5-2.9 6.5-6.5s-2.9-6.5-6.5-6.5zm-33.3 9.5c-8.3 5.2-15.4 12.3-20.5 20.5l-3 4.8-3-4.8c-5.2-8.3-12.3-15.4-20.5-20.5l-4.8-3 4.8-3c8.3-5.1 15.4-12.2 20.5-20.5l3-4.8 3 4.8c5.1 8.3 12.2 15.4 20.5 20.5l4.8 3-4.8 3zM461 208.4c-18.5 0-33.5-15-33.5-33.5 0-3.6-2.9-6.5-6.5-6.5s-6.5 2.9-6.5 6.5c0 18.5-15 33.5-33.5 33.5-3.6 0-6.5 2.9-6.5 6.5s2.9 6.5 6.5 6.5c18.5 0 33.5 15 33.5 33.5 0 3.6 2.9 6.5 6.5 6.5s6.5-2.9 6.5-6.5c0-18.5 15-33.5 33.5-33.5 3.6 0 6.5-2.9 6.5-6.5s-2.9-6.5-6.5-6.5zm-27.9 9.3c-3.5 2.7-6.7 5.8-9.3 9.3l-2.8 3.7-2.8-3.7c-2.7-3.5-5.8-6.7-9.3-9.3l-3.7-2.8 3.7-2.8c3.5-2.6 6.7-5.8 9.3-9.3l2.8-3.7 2.8 3.7c2.7 3.5 5.8 6.7 9.3 9.3l3.7 2.8-3.7 2.8zm-71.9 289.6c0 1.7-.7 3.4-1.9 4.6-1.2 1.2-2.9 1.9-4.6 1.9s-3.4-.7-4.6-1.9c-1.2-1.2-1.9-2.9-1.9-4.6s.7-3.4 1.9-4.6c1.2-1.2 2.9-1.9 4.6-1.9s3.4.7 4.6 1.9c1.2 1.3 1.9 2.9 1.9 4.6z"/></svg>