<svg id="Слой_1" xmlns="http://www.w3.org/2000/svg" viewBox="-41 164.9 512 512"><style>.st0{fill:#fff}</style><path class="st0" d="M433.9 161.4H58.6c-2.3.1-4.6 1-6.2 2.3-2.3 2-4.3 4.2-6.2 6.4l-2.7 3-19.6 20.8c-3.9 4.1-7.7 8.2-11.6 12.3-7.7 8-15.7 16.4-23.3 24.8-1.3 1.5-2.9 3.2-3.4 6.2-.1.4-.1.5-.1 424.3 0 10.5 8.5 19 19 19h62.4c6.1 0 11-4.9 11-11s-4.9-11-11-11H7.5V249.9h46.6c8.8 0 16-7.2 16-16v-50.5h286.7v61.8c0 6.1 4.9 11 11 11s11-4.9 11-11v-61.8H401c-1.9 2-3.1 4.7-3.1 7.7 0 6.1 4.9 11 11 11H423v14.8h-14.1c-6.1 0-11 4.9-11 11s4.9 11 11 11H423v14.8h-14.1c-6.1 0-11 4.9-11 11s4.9 11 11 11H423v14.8h-14.1c-6.1 0-11 4.9-11 11s4.9 11 11 11H423v14.8h-22.5c-6.1 0-11 4.9-11 11s4.9 11 11 11H423v14.8h-14.1c-6.1 0-11 4.9-11 11s4.9 11 11 11H423v14.8h-14.1c-6.1 0-11 4.9-11 11s4.9 11 11 11H423v14.7h-14.1c-6.1 0-11 4.9-11 11s4.9 11 11 11H423v14.3h-14.1c-6.1 0-11 4.9-11 11s4.9 11 11 11H423v14.8h-22.5c-6.1 0-11 4.9-11 11s4.9 11 11 11H423v3.5h-44.1V291.4c0-6.1-4.9-11-11-11s-11 4.9-11 11v316.9c0 8.8 7.2 16 16 16H403v34.2H113.3c-6.1 0-11 4.9-11 11s4.9 11 11 11H406c10.5 0 19-8.5 19-19v-37.2h3.9c8.8 0 16-7.2 16-16V172.4c-.1-6.1-5-11-11-11zM48.1 200.1v27.8H21.9l26.2-27.8zm374.8 371.8c-2.4-6.3-7.4-11.4-13.8-13.8h13.8v13.8zm-20.5 8.3c0 .9-.7 1.6-1.6 1.6s-1.6-.7-1.6-1.6c0-.9.7-1.6 1.6-1.6.9 0 1.6.7 1.6 1.6zm-23.7-8.3v-13.8h13.8c-6.3 2.4-11.4 7.5-13.8 13.8zm0 16.6c2.4 6.3 7.4 11.4 13.8 13.8h-13.8v-13.8zm44.2 0v13.8h-13.8c6.3-2.4 11.4-7.5 13.8-13.8z"/><path class="st0" d="M176 272.8H56.8c-6.1 0-11 4.9-11 11s4.9 11 11 11H176c6.1 0 11-4.9 11-11s-4.9-11-11-11zM56.8 326.1h69.9c6.1 0 11-4.9 11-11s-4.9-11-11-11H56.8c-6.1 0-11 4.9-11 11s4.9 11 11 11zM56.8 385.7h86.6c6.1 0 11-4.9 11-11s-4.9-11-11-11H56.8c-6.1 0-11 4.9-11 11s4.9 11 11 11zM221.4 363.7h-23.8c-6.1 0-11 4.9-11 11s4.9 11 11 11h23.8c6.1 0 11-4.9 11-11s-5-11-11-11zM253.9 385.7h23.8c6.1 0 11-4.9 11-11s-4.9-11-11-11h-23.8c-6.1 0-11 4.9-11 11s4.9 11 11 11zM334 363.7h-23.8c-6.1 0-11 4.9-11 11s4.9 11 11 11H334c6.1 0 11-4.9 11-11s-5-11-11-11zM197.6 426h23.8c6.1 0 11-4.9 11-11s-4.9-11-11-11h-23.8c-6.1 0-11 4.9-11 11 0 6 4.9 11 11 11zM253.9 426h23.8c6.1 0 11-4.9 11-11s-4.9-11-11-11h-23.8c-6.1 0-11 4.9-11 11 0 6 4.9 11 11 11zM334 404h-23.8c-6.1 0-11 4.9-11 11s4.9 11 11 11H334c6.1 0 11-4.9 11-11s-5-11-11-11zM197.6 466.3h23.8c6.1 0 11-4.9 11-11s-4.9-11-11-11h-23.8c-6.1 0-11 4.9-11 11s4.9 11 11 11zM253.9 466.3h23.8c6.1 0 11-4.9 11-11s-4.9-11-11-11h-23.8c-6.1 0-11 4.9-11 11s4.9 11 11 11zM334 444.3h-23.8c-6.1 0-11 4.9-11 11s4.9 11 11 11H334c6.1 0 11-4.9 11-11s-5-11-11-11zM197.6 506.5h23.8c6.1 0 11-4.9 11-11s-4.9-11-11-11h-23.8c-6.1 0-11 4.9-11 11s4.9 11 11 11zM253.9 506.5h23.8c6.1 0 11-4.9 11-11s-4.9-11-11-11h-23.8c-6.1 0-11 4.9-11 11s4.9 11 11 11zM334 484.6h-23.8c-6.1 0-11 4.9-11 11s4.9 11 11 11H334c6.1 0 11-4.9 11-11s-5-11-11-11zM197.6 546.8h23.8c6.1 0 11-4.9 11-11s-4.9-11-11-11h-23.8c-6.1 0-11 4.9-11 11s4.9 11 11 11zM253.9 546.8h23.8c6.1 0 11-4.9 11-11s-4.9-11-11-11h-23.8c-6.1 0-11 4.9-11 11s4.9 11 11 11zM334 524.9h-23.8c-6.1 0-11 4.9-11 11s4.9 11 11 11H334c6.1 0 11-4.9 11-11s-5-11-11-11zM56.8 426h47.6c6.1 0 11-4.9 11-11s-4.9-11-11-11H56.8c-6.1 0-11 4.9-11 11 0 6 4.9 11 11 11zM56.8 466.3h62.4c6.1 0 11-4.9 11-11s-4.9-11-11-11H56.8c-6.1 0-11 4.9-11 11s4.9 11 11 11zM56.8 506.5h47.6c6.1 0 11-4.9 11-11s-4.9-11-11-11H56.8c-6.1 0-11 4.9-11 11s4.9 11 11 11zM56.8 546.8h86.6c6.1 0 11-4.9 11-11s-4.9-11-11-11H56.8c-6.1 0-11 4.9-11 11s4.9 11 11 11zM335.2 211.5h-81.3c-6.1 0-11 4.9-11 11s4.9 11 11 11h81.3c6.1 0 11-4.9 11-11s-4.9-11-11-11zM186.6 592.8c0 6.1 4.9 11 11 11h137.6c6.1 0 11-4.9 11-11s-4.9-11-11-11H197.6c-6.1 0-11 4.9-11 11zM220.8 611.9c-6.1 0-11 4.9-11 11s4.9 11 11 11H312c6.1 0 11-4.9 11-11s-4.9-11-11-11h-91.2z"/></svg>