<svg id="Capa_1" xmlns="http://www.w3.org/2000/svg" viewBox="-54 178.7 485.2 485.2"><style>.st0{fill:#fb744f}</style><path class="st0" d="M431.2 542.6c0 10.6-3 20.5-7.8 29.2L270.2 400.3l151.5-132.6c5.9 9.4 9.4 20.3 9.4 32.2l.1 242.7zM188.6 431.5L399.5 247c-8.7-4.7-18.4-7.6-28.9-7.6H6.7c-10.5 0-20.3 2.9-28.9 7.6l210.8 184.5zm58.8-11.2L198.6 463c-2.9 2.5-6.4 3.7-10 3.7-3.6 0-7.1-1.2-10-3.7l-48.8-42.7-155.1 173.6c9.3 5.8 20.2 9.3 32 9.3h363.9c11.8 0 22.7-3.5 32-9.3L247.4 420.3zm-292-152.5c-5.9 9.4-9.4 20.3-9.4 32.2v242.6c0 10.6 3 20.5 7.8 29.2L107 400.3-44.6 267.8z"/></svg>