<svg id="Capa_1" xmlns="http://www.w3.org/2000/svg" viewBox="-41 164.9 512 512"><style>.st0,.st1{fill:#ff5635}.st1{stroke:#fff;stroke-width:3;stroke-miterlimit:10}</style><path class="st0" d="M167.4 579.1c-37.9-10.1-70.1-32.3-92.8-61.9-22.7-29.6-36-66.5-36-105.7 0-29.9 7.8-59.4 22.5-85.4l.3-.5.6-.2c8.5-2.5 29.6-10.3 40.3-28.4 13.1-22.4 4.7-50.9 4.3-52.1-.9-3-4-4.8-7-4.1-1.2.3-30.2 6.9-43.3 29.3-10.6 18.1-7.1 40.1-5.2 48.8l.1.6-.3.5c-7.5 13.1-13.3 27-17.3 41.5l-1 3.6-1.8-3.3c-3.6-6.9-8.1-12.5-13.4-16.9-20.1-16.5-49.6-12.5-50.8-12.3-3.1.4-5.3 3.2-5.1 6.3.1 1.3 2.1 30.9 22.2 47.3 13.7 11.2 32 12.8 41.6 12.8h1.9l-.1 1.6c-.2 3.9-.3 7.5-.3 10.9 0 16.5 2.2 33 6.6 48.9l1 3.7-3.2-2c-5.7-3.5-11.5-5.8-17.4-7-25.7-5-49.8 12.4-50.8 13.1-2.5 1.8-3.2 5.3-1.5 8 .2.4 6.2 9.9 16.3 18.3 1.2 1 2.8 1.5 4.4 1.4s3-.9 4.1-2.1c1-1.2 1.5-2.8 1.4-4.4s-.9-3-2.1-4.1c-3.2-2.7-6.3-5.8-9.1-9.2l-1.2-1.4 1.6-.9c8.7-4.6 21.7-9.6 34.6-7.1s23.1 12 29.4 19.5l1.2 1.4-1.6.9c-7.6 4-19 8.6-30.9 7.6-3.2-.3-6.2 2.2-6.5 5.4-.3 3.2 2.2 6.2 5.4 6.5 1.5.1 2.9.2 4.4.2 13.6 0 26-5.2 34-9.6l1.3-.7.7 1.3c8.8 16.3 19.9 31.2 33.1 44.2l2.7 2.7-3.8-.1h-1.3c-7.2 0-13.9 1.2-19.9 3.6-24.1 9.6-34.9 37.3-35.4 38.5-1.1 2.9.2 6.2 3 7.5.6.3 15.1 7.1 32.3 7.1 7.2 0 13.9-1.2 19.9-3.6 16.5-6.6 26.8-21.9 31.5-30.4l.8-1.4 1.3.9c15.9 10.1 33.2 17.6 51.4 22.4 1.6.4 3.2.2 4.6-.7 1.4-.9 2.4-2.2 2.8-3.8.5-3-1.4-6.2-4.5-7zm-100.9-303c3.3-5.7 8.1-10.1 13.1-13.6 5.1-3.5 10.4-6 15-7.7l1.7-.7.3 1.8c1.5 9.7 1.9 23.6-4.8 35-6.6 11.3-19 17.8-28.2 21.3l-1.7.7-.3-1.8c-1.3-9.8-1.7-23.7 4.9-35zM25 387c-9.8 0-23.6-1.8-33.8-10.1-5.1-4.2-8.8-9.5-11.4-15.1-2.6-5.5-4.3-11.2-5.3-16.1l-.4-1.8h1.8c9.8 0 23.6 1.8 33.8 10.2 10.2 8.3 14.7 21.5 16.7 31.1l.4 1.8H25zm75.2 176.4c-4.7 8.5-13 19.8-25.3 24.7-5 2-10.3 2.8-15.5 2.8-7.3 0-14.3-1.5-19.8-3.3l-1.8-.5.9-1.6c4.7-8.5 13-19.8 25.3-24.7 12.2-4.9 25.9-2.4 35.3.5l1.8.5-.9 1.6zM467 468.2c-.9-.7-19.5-14.1-41.2-14.1-3.1 0-6.3.3-9.4.9-5.9 1.2-11.8 3.5-17.4 7l-3.2 2 1-3.7c4.4-15.9 6.6-32.3 6.6-48.9 0-3.5-.1-7.1-.3-10.9l-.1-1.6h1.9c6.2 0 15.5-.7 24.8-3.8 1.5-.5 2.7-1.6 3.5-3 .7-1.4.8-3 .3-4.6-1-3.1-4.4-4.8-7.6-3.8-7.7 2.6-15.5 3.1-20.8 3.1h-1.9l.4-1.8c2-9.6 6.5-22.8 16.7-31.1s24-10.1 33.8-10.1h1.8l-.4 1.8c-1.2 6-3.8 14.6-8.8 22.3-1.8 2.8-1.1 6.5 1.7 8.3 2.8 1.8 6.5 1.1 8.3-1.7 10.6-16 11.9-35 11.9-35.8.2-3.1-2.1-5.9-5.1-6.3-1.3-.2-30.7-4.1-50.8 12.3-5.3 4.3-9.8 10-13.4 16.9l-1.8 3.3-1-3.6c-4.1-14.5-9.9-28.5-17.3-41.5l-.3-.5.1-.6c2-8.7 5.4-30.7-5.2-48.8-13.1-22.4-42.1-29-43.3-29.3-3-.7-6.1 1.1-7 4.1-.4 1.2-8.8 29.7 4.3 52.1 10.6 18.2 31.7 26 40.3 28.4l.6.2.3.5c14.7 26 22.5 55.5 22.5 85.4 0 78.6-53 147.5-128.8 167.6-3.1.8-5 4-4.3 7.1.4 1.6 1.3 2.9 2.8 3.8 1.4.9 3 1.1 4.6.7 18.2-4.8 35.5-12.4 51.4-22.4l1.3-.9.8 1.4c4.7 8.5 15 23.8 31.5 30.4 6 2.4 12.7 3.6 19.9 3.6 17.1 0 31.6-6.8 32.2-7.1 2.8-1.3 4.1-4.6 3-7.5-.5-1.2-11.3-28.9-35.4-38.5-6.3-2.5-13.5-3.8-21.3-3.6l-3.8.1 2.7-2.7c13.2-13 24.3-27.9 33.1-44.2l.7-1.3 1.3.7c8 4.4 20.4 9.6 34 9.6 3.2 0 6.4-.3 9.4-.9 25.5-5 41.3-30.1 41.9-31.2 1.7-2.4 1.1-5.9-1.5-7.8zM368.3 311l-.3 1.8-1.7-.7c-9.2-3.4-21.5-9.9-28.2-21.3-6.6-11.3-6.3-25.3-4.8-35l.3-1.8 1.7.7c9.2 3.5 21.5 9.9 28.2 21.3 6.6 11.4 6.2 25.3 4.8 35zM366 560.8c12.2 4.9 20.5 16.1 25.2 24.7l.9 1.6-1.8.6c-5.5 1.7-12.4 3.3-19.7 3.3-5.2 0-10.5-.8-15.6-2.8-12.2-4.9-20.5-16.1-25.2-24.7l-.9-1.6 1.8-.5c9.3-3.1 23-5.5 35.3-.6zm87.8-84.6c-6.3 7.5-16.4 17-29.4 19.5-2.4.5-4.8.7-7.2.7-10.4 0-20.4-4-27.4-7.7l-1.6-.9 1.2-1.4c6.3-7.5 16.4-17 29.4-19.5 13.6-2.7 27.5 3.3 34.6 7.1l1.6.9-1.2 1.3z"/><path class="st0" d="M285.1 483.2c0 16.7-13.6 30.4-30.3 30.4h-68.9c-16.7 0-30.3-13.6-30.3-30.4 0-16.7 13.6-30.3 30.3-30.3h6.5V342l-2.2 1.3c-11.8 6.7-26.8 4.6-36.4-5-11.8-11.8-11.8-31.1 0-42.9l47.5-47.5c8.7-8.7 21.7-11.3 33.1-6.6 11.4 4.7 18.7 15.7 18.7 28v51c0 3.3-2.7 6-6 6s-6-2.7-6-6v-51c0-7.5-4.5-14.1-11.3-17-6.9-2.9-14.8-1.3-20 4l-47.5 47.5c-7.2 7.2-7.2 18.8 0 26 7.2 7.2 18.8 7.2 26 0l6-5.9c1.7-1.7 4.3-2.2 6.5-1.3s3.7 3.1 3.7 5.5v130.7c0 3.3-2.7 6-6 6H186c-10.1 0-18.4 8.3-18.4 18.4 0 10.2 8.3 18.4 18.4 18.4h68.9c10.1 0 18.4-8.3 18.4-18.4s-8.3-18.4-18.4-18.4h-7.6c-3.3 0-6-2.7-6-6V350.3c0-3.3 2.7-6 6-6s6 2.7 6 6v102.6h1.7c16.5 0 30.1 13.6 30.1 30.3z"/></svg>